<?xml version="1.0" standalone="no"?>
<!DOCTYPE svg PUBLIC "-//W3C//DTD SVG 20010904//EN"
 "http://www.w3.org/TR/2001/REC-SVG-20010904/DTD/svg10.dtd">
<svg version="1.0" xmlns="http://www.w3.org/2000/svg"
 width="500.000000pt" height="500.000000pt" viewBox="0 0 500.000000 500.000000"
 preserveAspectRatio="xMidYMid meet">
<metadata>
Created by potrace 1.11, written by Peter Selinger 2001-2013
</metadata>
<g transform="translate(0.000000,500.000000) scale(0.100000,-0.100000)"
fill="#000000" stroke="none">
<path d="M3412 3705 c-292 -82 -421 -400 -502 -1235 -14 -143 -27 -219 -41
-236 -18 -22 -45 -17 -57 10 -6 14 -41 175 -77 358 -109 554 -158 693 -287
825 -82 83 -153 115 -268 121 -254 11 -413 -168 -504 -568 -8 -36 -33 -157
-56 -270 -41 -203 -58 -251 -94 -258 -28 -6 -47 18 -95 118 -120 251 -225 356
-431 433 -50 19 -82 21 -362 25 -257 3 -317 1 -361 -12 -119 -35 -172 -103
-172 -223 0 -63 3 -76 30 -115 39 -54 116 -106 169 -112 23 -3 133 -10 245
-16 186 -9 209 -12 263 -36 62 -29 115 -79 146 -141 11 -21 50 -114 87 -208
91 -230 128 -298 200 -371 202 -202 471 -189 635 33 83 113 129 253 200 612
22 113 47 215 55 228 21 32 51 29 69 -6 9 -16 49 -197 91 -402 41 -206 89
-421 106 -479 95 -321 259 -490 474 -490 205 0 340 130 419 402 41 141 55 225
102 598 76 609 86 651 152 658 27 3 36 -4 72 -50 152 -196 222 -253 366 -298
122 -37 236 -50 454 -50 227 0 300 11 372 53 120 70 132 260 24 355 -67 58
-91 64 -327 73 -225 8 -287 17 -347 48 -72 37 -118 101 -232 321 -78 152 -159
242 -256 287 -70 32 -185 40 -262 18z"/>
</g>
</svg>
